<svg xmlns="http://www.w3.org/2000/svg" width="23.25" height="8.87" viewBox="0 0 23.25 8.87">
  <path id="sunglasses_1_" data-name="sunglasses (1)" d="M22.863,20.494h-.415a2.272,2.272,0,0,0-1.331-1.509,4.24,4.24,0,0,0-1.913-.428h-4.46l-.018,0v0H4.065a4.241,4.241,0,0,0-1.913.428A2.271,2.271,0,0,0,.82,20.494H.388a.388.388,0,0,0,0,.775H.775v3.121A3.321,3.321,0,0,0,3.2,27.275a3.724,3.724,0,0,0,1.058.15h0A4.276,4.276,0,0,0,5.6,27.2c1.96-.651,5.249-2.137,5.247-4.733a6.463,6.463,0,0,0,0-1.015,1.337,1.337,0,0,1,1.568.013,6.174,6.174,0,0,0,0,.965c0,2.634,3.289,4.12,5.249,4.771a4.273,4.273,0,0,0,1.347.223,3.724,3.724,0,0,0,1.058-.15,3.323,3.323,0,0,0,2.421-2.906v-3.1h.37a.388.388,0,0,0,0-.775ZM2.986,22.317a.387.387,0,1,1-.548-.548l1.55-1.55a.387.387,0,0,1,.548.548Zm4.263-1.55L4.537,23.48a.387.387,0,1,1-.548-.548L6.7,20.22a.387.387,0,0,1,.548.548Zm3.481-.136a3.253,3.253,0,0,0-.574-1.3h2.957a3.262,3.262,0,0,0-.576,1.308A2.176,2.176,0,0,0,10.73,20.631Zm3.608,1.8a.388.388,0,0,1-.274-.661l1.55-1.55a.387.387,0,0,1,.548.548l-1.55,1.55A.386.386,0,0,1,14.338,22.431Zm4.537-1.664L16.162,23.48a.387.387,0,1,1-.548-.548l2.713-2.713a.387.387,0,0,1,.548.548Z" transform="translate(0 -18.556)"/>
</svg>
