<svg xmlns="http://www.w3.org/2000/svg" width="19.918" height="18.233" viewBox="0 0 19.918 18.233">
  <g id="swimsuit" transform="translate(0 -67.419)">
    <path id="Path_14" data-name="Path 14" d="M19.465,137.631a11.867,11.867,0,0,0-.457-2.739H11.855v4.985H10.688v-4.985H9.23v3.353H8.063v-3.353H.91a11.868,11.868,0,0,0-.457,2.739c-.136,1.4-.245,3.235-.323,5.46-.1,2.8-.123,5.516-.13,6.772H8.223l1.736-6.615,1.736,6.615h8.223c-.006-1.257-.031-3.974-.13-6.772C19.71,140.866,19.6,139.029,19.465,137.631Z" transform="translate(0 -64.21)"/>
    <path id="Path_15" data-name="Path 15" d="M33.682,67.419h16.66v1.812H33.682Z" transform="translate(-32.053)"/>
  </g>
</svg>
