<svg xmlns="http://www.w3.org/2000/svg" width="21.341" height="16.144" viewBox="0 0 21.341 16.144">
  <path id="Icon_awesome-redhat" data-name="Icon awesome-redhat" d="M14.235,12.226c1.4,0,3.432-.289,3.432-1.959.009-.281.036-.076-.87-4.011-.193-.8-.362-1.16-1.764-1.861A16.358,16.358,0,0,0,10.876,2.92c-.653,0-.842.841-1.62.841-.75,0-1.305-.628-2.006-.628-.673,0-1.111.458-1.45,1.4C4.655,7.767,4.705,7.63,4.712,7.8c0,1.034,4.07,4.423,9.523,4.423m3.646-1.274a5.572,5.572,0,0,1,.194,1.136c0,1.57-1.764,2.441-4.085,2.441-5.241,0-9.833-3.07-9.833-5.1A2.065,2.065,0,0,1,4.327,8.6C2.441,8.7,0,9.032,0,11.187c0,3.529,8.363,7.878,14.984,7.878,5.076,0,6.357-2.3,6.357-4.109,0-1.426-1.233-3.045-3.457-4.011" transform="translate(0 -2.92)"/>
</svg>
