<svg xmlns="http://www.w3.org/2000/svg" width="21.733" height="12.419" viewBox="0 0 21.733 12.419">
  <g id="sport-shoe" transform="translate(-0.002 -97.338)">
    <path id="Path_12" data-name="Path 12" d="M24.541,282.311l-.112-.165-.093.176c-.605,1.15-2.617,1.837-4.212,1.837-2.031,0-12.061-.305-13.367-.38-.258-.015-.528-.022-.849-.022-.2,0-.384,0-.562,0-.155,0-.3,0-.439,0a3.244,3.244,0,0,1-1.04-.2,1.472,1.472,0,0,0-.408-.1.273.273,0,0,0-.2.077.436.436,0,0,0-.093.327c.02,1.352.736,1.456,1.745,1.456.139,0,.286,0,.442,0,.178,0,.362,0,.559,0,.316,0,.581.007.835.022,1.307.074,11.347.38,13.381.38a6.9,6.9,0,0,0,3.052-.733,2.435,2.435,0,0,0,1.568-2A1.183,1.183,0,0,0,24.541,282.311Z" transform="translate(-3.009 -175.966)"/>
    <path id="Path_13" data-name="Path 13" d="M1.763,107.151c.138,0,.284,0,.439,0,.176,0,.359,0,.555,0,.314,0,.577.007.828.022,1.3.074,11.259.38,13.277.38a6.806,6.806,0,0,0,3.029-.733,2.433,2.433,0,0,0,1.556-2c0-1.106-1.261-1.463-2.6-1.841a10.7,10.7,0,0,1-2.117-.76c-.287-.154-.724-.377-1.256-.644,0-.015,0-.031,0-.046a.824.824,0,0,0-1.361-.627l-.592-.29a.823.823,0,0,0-1.3-.636l-.541-.263a.825.825,0,0,0-1.4-.68c-1.76-.85-3.2-1.54-3.332-1.6a.452.452,0,0,0-.255-.082.46.46,0,0,0-.366.185l-.972,1.3a.686.686,0,0,0-.152.529c.058.346.415.59.7.787a1.39,1.39,0,0,1,.311.251h0a2.254,2.254,0,0,1-1.418.385,3.919,3.919,0,0,1-1.324-.24A1.791,1.791,0,0,1,2.547,99.4c-.147-.355-.273-.661-.555-.661-.214,0-.461.192-.827.642-1.247,1.585-1.188,4.006-1.146,5.774,0,.189.009.371.011.544C.051,107.046.761,107.151,1.763,107.151Zm10.449-4.912a.392.392,0,0,1,.358-.1c.172.051.579.161.828.223.213.053.021.22.021.22l-3.23,2.957a.532.532,0,0,1-.333.122l-1.2,0c-.211,0-.036-.178-.036-.178Zm-2.46-.7a.6.6,0,0,1,.548-.151c.152.048.508.136.735.2.194.054-.012.255-.012.255l-4,3.625a.447.447,0,0,1-.407.169c-.352,0-1.023.016-1.3.016-.155,0-.017-.167-.017-.167Z" transform="translate(0 0)"/>
  </g>
</svg>
