<svg xmlns="http://www.w3.org/2000/svg" width="20.652" height="17.966" viewBox="0 0 20.652 17.966">
  <g id="casual-t-shirt-" transform="translate(0 -19.219)">
    <path id="Path_16" data-name="Path 16" d="M121.88,25.314a2.042,2.042,0,0,0,1.945-1.409,8.207,8.207,0,0,1-3.889,0A2.041,2.041,0,0,0,121.88,25.314Z" transform="translate(-111.554 -4.359)"/>
    <path id="Path_17" data-name="Path 17" d="M20.626,21.988a.473.473,0,0,0-.246-.271L16.442,19.9a19.041,19.041,0,0,0-2.552-.672.469.469,0,0,0-.09-.009.463.463,0,0,0-.452.363,3.1,3.1,0,0,1-6.045,0,.463.463,0,0,0-.452-.363.469.469,0,0,0-.09.009,19.114,19.114,0,0,0-2.554.672L.271,21.717a.463.463,0,0,0-.245.271.459.459,0,0,0,.025.365L1.76,25.726a.464.464,0,0,0,.549.236l1.9-.563V36.718a.468.468,0,0,0,.467.467h11.3a.467.467,0,0,0,.466-.467V25.4l1.9.563a.464.464,0,0,0,.549-.236l1.71-3.373A.468.468,0,0,0,20.626,21.988Z" transform="translate(0 0)"/>
  </g>
</svg>
