<svg width="900" height="86" viewBox="0 0 900 86" fill="none" xmlns="http://www.w3.org/2000/svg">
<g clip-path="url(#clip0_4_2)">
<path d="M0 17L16.7 15.3C33.3 13.7 66.7 10.3 100 14.2C133.3 18 166.7 29 200 28.3C233.3 27.7 266.7 15.3 300 8.29999C333.3 1.29999 366.7 -0.299988 400 5.70001C433.3 11.7 466.7 25.3 500 29C533.3 32.7 566.7 26.3 600 28.7C633.3 31 666.7 42 700 39.5C733.3 37 766.7 21 800 12.2C833.3 3.30001 866.7 1.69999 883.3 0.799988L900 0V87H883.3C866.7 87 833.3 87 800 87C766.7 87 733.3 87 700 87C666.7 87 633.3 87 600 87C566.7 87 533.3 87 500 87C466.7 87 433.3 87 400 87C366.7 87 333.3 87 300 87C266.7 87 233.3 87 200 87C166.7 87 133.3 87 100 87C66.7 87 33.3 87 16.7 87H0V17Z" fill="black"/>
</g>
<defs>
<clipPath id="clip0_4_2">
<rect width="900" height="86" fill="white"/>
</clipPath>
</defs>
</svg>
