<svg width="336" height="306" viewBox="0 0 336 306" fill="none" xmlns="http://www.w3.org/2000/svg">
<path d="M300 52.5L335 57C326.333 80.3333 302.3 137.2 275.5 178C248.7 218.8 201 279.667 180.5 305C185.333 296.5 201.3 253.9 226.5 151.5C258 23.5 253.663 33.7611 251 29.5C248.5 25.5 230.5 28 183 46C234.5 6 252 -2 256.5 1.5C281.7 29.5 302 40.8333 309 43C313.333 42.8333 313.9 43.8 281.5 49C280.5 61.5 256 140.5 253 151.5C250.6 160.3 215.667 236.833 198.5 274C206 262.833 226.9 229 250.5 183C274.1 137 293.333 76.8333 300 52.5Z" fill="#C4C4C4" stroke="#C4C4C4"/>
<circle cx="167.5" cy="85.5" r="14.5" fill="#C4C4C4"/>
<path d="M219 61C209.8 72.2 189.167 78.3333 180 80V90.5C196.5 106.5 193 99 208.5 121C212 116 221.5 74.5 219 61Z" fill="#FFB037" stroke="#FFB037"/>
<path d="M36 52.7383L1 57.2383C9.66667 80.5717 33.7 137.438 60.5 178.238C87.3 219.038 135 279.905 155.5 305.238C150.667 296.738 134.7 254.138 109.5 151.738C78 23.7383 82.3368 33.9995 85 29.7383C87.5 25.7383 105.5 28.2383 153 46.2383C101.5 6.23832 84 -1.76168 79.5 1.73832C54.3 29.7383 34 41.0717 27 43.2383C22.6667 43.0717 22.1 44.0383 54.5 49.2383C55.5 61.7383 80 140.738 83 151.738C85.4 160.538 120.333 237.072 137.5 274.238C130 263.072 109.1 229.238 85.5 183.238C61.9 137.238 42.6667 77.0717 36 52.7383Z" fill="#C4C4C4" stroke="#C4C4C4"/>
<circle r="14.5" transform="matrix(-1 0 0 1 167.5 85.5)" fill="#FFB037"/>
<path d="M117 61.2383C126.2 72.4383 146.833 78.5717 156 80.2383V90.7383C139.5 106.738 143 99.2383 127.5 121.238C124 116.238 114.5 74.7383 117 61.2383Z" fill="#FFB037" stroke="#FFB037"/>
<path d="M172 181.5V102H164V181.5H172Z" fill="#FFB037" stroke="#FFB037"/>
</svg>
